<svg xmlns="http://www.w3.org/2000/svg" viewBox="-3 -3 200 300" width="75" height="75">
  <g transform="translate(25 -25)">
    <filter id="b" width="200%" height="200%" x="-50%" y="-50%">
      <feComponentTransfer in="SourceAlpha">
        <feFuncA tableValues="2 0" type="table"/>
      </feComponentTransfer>
      <feGaussianBlur stdDeviation="16"/>
      <feOffset dx="-15" result="offsetblur"/>
      <feFlood flood-color="#B3C0D1" result="color"/>
      <feComposite in2="offsetblur" operator="in"/>
      <feComposite in2="SourceGraphic" operator="in"/>
      <feMerge>
        <feMergeNode in="SourceGraphic"/>
        <feMergeNode/>
      </feMerge>
    </filter>
    <filter id="a" width="200%" height="200%" x="-50%" y="-50%">
      <feComponentTransfer in="SourceGraphic">
        <feFuncA tableValues="0 0.5" type="table"/>
      </feComponentTransfer>
      <feGaussianBlur stdDeviation="6"/>
      <feOffset dx="5" dy="5" result="offsetblur"/>
      <feFlood flood-color="#000" result="color"/>
      <feComposite in2="offsetblur" operator="in"/>
    </filter>
    <path fill="#fff" stroke="#b5c3d8" stroke-linejoin="round" stroke-width=".75em" d="M.38571 108.65214c5.16228-85.95038 115.74251-91.10762 140.85307-8.02139-89.03993-55.68188-108.06556 79.37758 2.59638 51.83045-1.66143 38.1839-24.21286 125.18536-130.4676 144.38482 37.69596-24.67758 64.23096-51.38016 65.55835-103.04384 0 0-83.70248.80034-78.5402-85.15004z" filter="url(#a)" style="box-shadow:inset 0 0 1em #c4d0e0"/>
    <path fill="#fff" d="M.38571 108.65214c5.16228-85.95038 115.74251-91.10762 140.85307-8.02139-89.03993-55.68188-108.06556 79.37758 2.59638 51.83045-1.66143 38.1839-24.21286 125.18536-130.4676 144.38482 37.69596-24.67758 64.23096-51.38016 65.55835-103.04384 0 0-83.70248.80034-78.5402-85.15004z" filter="url(#b)"/>
    <path fill="Transparent" stroke="#b5c3d8" stroke-linejoin="round" stroke-width=".375em" d="M.38571 108.65214c5.16228-85.95038 115.74251-91.10762 140.85307-8.02139-89.03993-55.68188-108.06556 79.37758 2.59638 51.83045-1.66143 38.1839-24.21286 125.18536-130.4676 144.38482 37.69596-24.67758 64.23096-51.38016 65.55835-103.04384 0 0-83.70248.80034-78.5402-85.15004z" style="box-shadow:inset 0 0 1em #c4d0e0"/>
  </g>
</svg>