<svg xmlns="http://www.w3.org/2000/svg" xmlns:xlink="http://www.w3.org/1999/xlink" viewBox="0 0 61.118752 38.364582">
  <defs>
    <linearGradient id="d">
      <stop offset="0" stop-color="#b0b7c0"/>
      <stop offset="1" stop-color="#b1b7c1"/>
    </linearGradient>
    <linearGradient id="c">
      <stop offset="0" stop-color="#c8ced8"/>
      <stop offset=".5" stop-color="#e8e8f0"/>
      <stop offset="1" stop-color="#c8ced8"/>
    </linearGradient>
    <linearGradient id="e">
      <stop offset="0" stop-color="#bbc5d6"/>
      <stop offset="1" stop-color="#8a9aae"/>
    </linearGradient>
    <linearGradient id="b">
      <stop offset="0" stop-color="#9fb5c8"/>
      <stop offset="1" stop-color="#c0cad5"/>
    </linearGradient>
    <linearGradient id="a">
      <stop offset="0" stop-color="#fff" stop-opacity=".50196081"/>
      <stop offset="1" stop-color="#fff" stop-opacity="0"/>
    </linearGradient>
    <linearGradient id="f" x1="3.3422122" x2="54.855614" y1="293.62589" y2="268.23529" gradientUnits="userSpaceOnUse" xlink:href="#a"/>
    <linearGradient id="g" x1="58.80064" x2="58.866001" y1="294.96225" y2="266.73172" gradientUnits="userSpaceOnUse" xlink:href="#b"/>
    <linearGradient id="h" x1="2.4190476" x2="56.781292" y1="280.80608" y2="280.80608" gradientUnits="userSpaceOnUse" xlink:href="#c"/>
    <linearGradient id="i" x1="2.4190476" x2="56.781292" y1="280.80609" y2="280.80609" gradientTransform="translate(.000001 -.28347348)" gradientUnits="userSpaceOnUse" xlink:href="#d"/>
    <linearGradient id="j" x1="55.106731" x2="55.106731" y1="267.13986" y2="294.47229" gradientTransform="translate(9e-7 .00000163)" gradientUnits="userSpaceOnUse" xlink:href="#e"/>
  </defs>
  <path fill="url(#f)" stroke="url(#g)" stroke-width=".26458332" d="M58.866 266.73172c0-.85282-.629242-1.67073-1.701765-1.67073H39.889977c-3.064584 0-5.177426-6.347-8.291496-6.347H1.871c-1.45730709 0-1.871.41506-1.871 1.73353v34.41432c0 1.3395.81906541 2.13815 1.871 2.13815h55.293235c1.150634 0 1.701765-1.01853 1.701765-2.00989z" transform="translate(0 -258.63541)"/>
  <path fill="url(#h)" d="M56.649 268.80163v24.37947c0 .92933-.645192 1.29118-1.54227 1.29118H3.8270089c-.9181306 0-1.2756696-.51833-1.2756696-1.27567v-24.63932c0-1.03456.5597633-1.41742 1.4174106-1.41742H55.10673c.956166 0 1.54227.55053 1.54227 1.66176z" transform="translate(0 -258.63541)"/>
  <path fill="url(#i)" d="M56.649 274.60499v3.874H2.55134v-3.874z" transform="translate(0 -258.63541)"/>
  <path fill="none" stroke="url(#j)" stroke-width=".26458332" d="M56.649 268.80163v24.37947c0 .92933-.645191 1.29118-1.542269 1.29118H3.8270098c-.9181306 0-1.2756697-.51833-1.2756697-1.27567v-24.63932c0-1.03456.5597633-1.41742 1.4174107-1.41742H55.106731c.956167 0 1.542269.55053 1.542269 1.66176z" transform="translate(0 -258.63541)"/>
</svg>